<?xml version="1.0" encoding="UTF-8"?><svg id="a" xmlns="http://www.w3.org/2000/svg" width="60" height="60" xmlns:xlink="http://www.w3.org/1999/xlink" viewBox="0 0 60 60"><defs><style>.f{fill:#c1272d;}.g{opacity:.08;}.h{opacity:.07;}.i{clip-path:url(#b);}.j{stroke:#fff;}.j,.k{stroke-miterlimit:10;stroke-width:3px;}.j,.k,.l,.m{fill:none;}.k{stroke:#000;}.n{fill:url(#e);}.o{fill:url(#d);}.p{fill:url(#c);}.m{stroke:#006233;stroke-width:1.1px;}</style><clipPath id="b"><path class="l" d="m0,7.5v45c20,9,40-9,60,0V7.5C40-1.5,20,16.5,0,7.5Z"/></clipPath><radialGradient id="c" cx="30" cy="37.04" fx="30" fy="37.04" r="24.76" gradientUnits="userSpaceOnUse"><stop offset="0" stop-color="#fff" stop-opacity=".3"/><stop offset="1" stop-color="#fff" stop-opacity="0"/></radialGradient><radialGradient id="d" cx="653.64" cy="13.37" fx="653.64" fy="13.37" r="28.87" gradientTransform="translate(-66.33 13.66) scale(.18 1.11)" gradientUnits="userSpaceOnUse"><stop offset="0" stop-color="#000" stop-opacity=".1"/><stop offset="1" stop-color="#000" stop-opacity="0"/></radialGradient><radialGradient id="e" cx="364.55" fx="364.55" xlink:href="#d"/></defs><g class="i"><path class="f" d="m60,7.5C40-1.5,20,16.5,0,7.5v45c20,9,40-9,60,0V7.5Z"/><path class="m" d="m30,24.32c-1.11,3.68-2.22,7.35-3.34,11.02,2.91-2.74,5.82-5.55,8.74-8.25-3.6.73-7.2,1.62-10.8,2.35,2.91,1.52,5.82,2.94,8.74,4.42-1.11-3.18-2.22-6.36-3.34-9.53Z"/><rect class="p" y="6.04" width="60" height="62"/><rect class="o" x="48" y="-5.96" width="11" height="69"/><rect class="n" x="-5" y="-5.96" width="11" height="69"/><g class="h"><path class="j" d="m60,7.54C40-1.46,20,16.54,0,7.54v45"/></g><g class="g"><path class="k" d="m0,52.54c20,9,40-9,60,0V7.54"/></g></g></svg>