<?xml version="1.0" encoding="UTF-8"?><svg id="a" xmlns="http://www.w3.org/2000/svg" width="60" height="60" xmlns:xlink="http://www.w3.org/1999/xlink" viewBox="0 0 60 60"><defs><style>.f{fill:#002664;}.f,.g,.h{fill-rule:evenodd;}.g{fill:#fecb00;}.i{opacity:.08;}.j{opacity:.07;}.k{clip-path:url(#b);}.l{stroke:#fff;}.l,.m{stroke-miterlimit:10;stroke-width:3px;}.l,.m,.n{fill:none;}.m{stroke:#000;}.o{fill:url(#e);}.p{fill:url(#d);}.h{fill:#c60c30;}.q{fill:url(#c);}</style><clipPath id="b"><path class="n" d="m0,7.5v45c20,9,40-9,60,0V7.5C40-1.5,20,16.5,0,7.5Z"/></clipPath><radialGradient id="c" cx="30" cy="37.04" fx="30" fy="37.04" r="24.76" gradientUnits="userSpaceOnUse"><stop offset="0" stop-color="#fff" stop-opacity=".3"/><stop offset="1" stop-color="#fff" stop-opacity="0"/></radialGradient><radialGradient id="d" cx="11879.09" cy="13.37" fx="11879.09" fy="13.37" r="28.87" gradientTransform="translate(-2124.33 13.66) scale(.18 1.11)" gradientUnits="userSpaceOnUse"><stop offset="0" stop-color="#000" stop-opacity=".1"/><stop offset="1" stop-color="#000" stop-opacity="0"/></radialGradient><radialGradient id="e" cx="11590" fx="11590" xlink:href="#d"/></defs><g class="k"><path class="f" d="m0,7.5c6.69,3.01,13.38,3,20.06,1.99v45c-6.69,1.01-13.38,1.02-20.06-1.99V7.5Z"/><path class="h" d="m39.94,5.51c6.69-1.01,13.38-1.02,20.06,1.99v45c-6.69-3.01-13.38-3-20.06-1.99V5.51Z"/><path class="g" d="m20.06,9.49c6.62-1,13.25-2.98,19.88-3.98v45c-6.62,1-13.25,2.98-19.88,3.98V9.49Z"/><rect class="q" y="6.04" width="60" height="62"/><rect class="p" x="48" y="-5.96" width="11" height="69"/><rect class="o" x="-5" y="-5.96" width="11" height="69"/><g class="j"><path class="l" d="m60,7.54C40-1.46,20,16.54,0,7.54v45"/></g><g class="i"><path class="m" d="m0,52.54c20,9,40-9,60,0V7.54"/></g></g></svg>