<?xml version="1.0" encoding="UTF-8"?><svg id="a" xmlns="http://www.w3.org/2000/svg" width="60" height="60" xmlns:xlink="http://www.w3.org/1999/xlink" viewBox="0 0 60 60"><defs><style>.f{fill:#000001;}.f,.g,.h,.i{fill-rule:evenodd;}.j{opacity:.08;}.k{opacity:.07;}.l{clip-path:url(#b);}.m{stroke:#fff;}.m,.n{stroke-miterlimit:10;stroke-width:3px;}.m,.n,.o{fill:none;}.g{fill:#09f;}.n{stroke:#000;}.p{fill:url(#e);}.q{fill:url(#d);}.r{fill:url(#c);}.h{fill:#090;}.i{fill:#ff0;}</style><clipPath id="b"><path class="o" d="m0,7.5v45c20,9,40-9,60,0V7.5C40-1.5,20,16.5,0,7.5Z"/></clipPath><radialGradient id="c" cx="30" cy="37.04" fx="30" fy="37.04" r="24.76" gradientUnits="userSpaceOnUse"><stop offset="0" stop-color="#fff" stop-opacity=".3"/><stop offset="1" stop-color="#fff" stop-opacity="0"/></radialGradient><radialGradient id="d" cx="13482.73" cy="13.37" fx="13482.73" fy="13.37" r="28.87" gradientTransform="translate(-2418.33 13.66) scale(.18 1.11)" gradientUnits="userSpaceOnUse"><stop offset="0" stop-color="#000" stop-opacity=".1"/><stop offset="1" stop-color="#000" stop-opacity="0"/></radialGradient><radialGradient id="e" cx="13193.64" fx="13193.64" xlink:href="#d"/></defs><g class="l"><path class="g" d="m60,7.5v45c-20-9-40,9-60,0V7.5c20,9,40-9,60,0Z"/><path class="h" d="m60,7.5v2.5C40,14.33,20,45.67,0,50V7.5c20,9,40-9,60,0Z"/><path class="f" d="m60,7.5v11.92c-16.25,3.71-32.5,25.25-48.75,35.65-3.75-.15-7.5-.88-11.25-2.57v-11.92c16.25-3.71,32.5-25.25,48.75-35.65,3.75.15,7.5.88,11.25,2.57Z"/><path class="i" d="m47.7,4.9C31.8,15.35,15.9,35.86,0,39.31v3.38c17.59-3.82,35.17-28.51,52.76-37.36-1.69-.28-3.37-.41-5.06-.42ZM7.24,54.67c1.69.28,3.37.41,5.06.42,15.9-10.44,31.8-30.96,47.7-34.41v-3.38c-17.59,3.82-35.17,28.51-52.76,37.36Z"/><rect class="r" y="6.04" width="60" height="62"/><rect class="q" x="48" y="-5.96" width="11" height="69"/><rect class="p" x="-5" y="-5.96" width="11" height="69"/><g class="k"><path class="m" d="m60,7.54C40-1.46,20,16.54,0,7.54v45"/></g><g class="j"><path class="n" d="m0,52.54c20,9,40-9,60,0V7.54"/></g></g></svg>